<?xml version="1.0" encoding="utf-8"?>
<!-- Generator: Adobe Illustrator 24.0.3, SVG Export Plug-In . SVG Version: 6.00 Build 0)  -->
<svg version="1.1" id="Layer_1" xmlns="http://www.w3.org/2000/svg" xmlns:xlink="http://www.w3.org/1999/xlink" x="0px" y="0px"
	 viewBox="0 0 264 65" style="enable-background:new 0 0 264 65;" xml:space="preserve">
<g>
	<path d="M63.9,48c0,0.3,0.1,0.5,0.1,0.6c0,0.9-0.2,1.7-0.6,2.5c-0.4,0.8-0.9,1.5-1.3,2.2c-0.9,0.9-1.8,1.7-2.8,2.5
		c-1,0.8-2.1,1.2-3.2,1.2c-0.3,0-0.6,0-0.9-0.1c-0.3-0.1-0.5-0.2-0.8-0.4c-1.5-0.5-3.1-1.1-4.6-1.8c-1.5-0.7-3-1.2-4.6-1.4l-10.1-1
		l-13.8,0.1c-2.7,0.1-5.2,0.5-7.7,1.1c-2.5,0.6-5,1.4-7.4,2.4c-0.4-0.2-0.9-0.3-1.3-0.4c-0.4-0.1-0.8-0.3-1-0.6c0-0.3,0-0.5,0-0.8
		c0-0.3,0-0.4,0-0.5c0-0.4,0-0.8,0.1-1.2c0.1-0.4,0.2-0.7,0.4-1c0.4-0.3,0.8-0.7,1.2-1C6,50,6.4,49.8,6.9,49.7l22.6-1.5h2.3
		c3.8,0,7.6,0.2,11.4,0.5c3.8,0.3,7.7,0.5,11.6,0.5c1.5-0.2,2.9-0.4,4.3-0.6c1.4-0.3,2.7-0.6,3.9-1.2h0.8
		C63.8,47.5,63.9,47.7,63.9,48z M36,5.1c0,0.4,0.1,0.8,0.2,1.2c-0.3,0.6-0.6,1.2-0.7,1.9c-0.1,0.7-0.2,1.4-0.3,2.2l13.3,0.1
		c1.1,0.1,2.2,0.2,3.2,0.4c1,0.2,2.1,0.3,3.1,0.3c0.7,0,1.4-0.1,2-0.3c0.6-0.2,1.3-0.3,1.9-0.4h0.4c0.3,0,0.5,0.1,0.8,0.3
		c0.3,0.2,0.5,0.5,0.6,0.8c0,0.2,0,0.4,0,0.5c0,0.1,0,0.3,0,0.5c0,0.7-0.1,1.3-0.4,1.9c-0.3,0.6-0.4,1.2-0.5,1.8
		c-0.4,1.2-0.7,2.5-0.8,4c-0.1,1.5-0.3,2.9-0.6,4.3c-0.1,0.3-0.3,0.6-0.7,0.6c-0.4,0.1-0.8,0.2-1.1,0.3c-0.3-0.1-0.7-0.2-1-0.3
		c-0.3-0.1-0.5-0.5-0.7-1c0-0.7,0-1.4-0.1-2.1c0-0.7-0.1-1.3-0.1-1.9c0-0.7,0-1.4,0.1-2.1c0-0.7,0.1-1.3,0.1-1.9
		c-2.4-0.3-4.9-0.6-7.5-0.8c-2.6-0.2-5.2-0.3-7.7-0.3h-2.6l-13,0.3c-1.9,0.1-3.7,0.3-5.6,0.5c-1.8,0.3-3.7,0.5-5.6,0.8l-0.3,0.1
		c-0.1,1.5-0.1,3.1-0.1,4.6c0,1.5-0.5,2.8-1.4,3.7c-0.2,0-0.4,0-0.7,0.1c-0.3,0-0.5,0.1-0.7,0.1c-0.2,0-0.4,0-0.6-0.1
		c-0.2-0.1-0.4-0.2-0.6-0.4c-0.1-2.2-0.2-4.3-0.4-6.5C7.8,16.3,7.5,14.1,7,12c0-0.4,0.1-0.7,0.4-0.9c0.3-0.2,0.6-0.3,0.8-0.4
		c0.2-0.1,0.4-0.1,0.6-0.1c0.2,0,0.4,0,0.5,0c0.9,0,1.7,0.1,2.4,0.3c0.7,0.2,1.5,0.3,2.3,0.3c2.8-0.3,5.7-0.5,8.6-0.5
		c2.9,0,5.7,0,8.6-0.1c0-0.8-0.1-1.6-0.4-2.5c-0.3-0.9-0.4-1.7-0.4-2.5c0-0.4,0.1-0.9,0.3-1.4c0.2-0.5,0.5-0.8,1-1
		c0.3-0.2,0.6-0.3,0.9-0.3c0.3,0,0.7-0.1,1-0.1c0.4,0,0.8,0.1,1.2,0.3c0.4,0.2,0.7,0.5,0.8,1C35.9,4.3,36,4.7,36,5.1z M47.6,18.7
		c0.1,0.3,0.2,0.6,0.3,0.8c0.1,0.3,0.1,0.5,0.1,0.8c0,0.2,0,0.4-0.1,0.5c0,0.1-0.1,0.3-0.2,0.5c-0.2,0.6-0.5,1.1-0.9,1.5
		c-0.4,0.4-0.9,0.6-1.5,0.6c-1.6,0-3.4,0-5.3,0c-1.9,0-3.7,0-5.4,0c-1.9,0-3.8,0-5.6,0c-1.9,0-3.6,0-5.4,0h-0.1c-0.6,0-1.2,0-1.8,0
		s-1.2,0-1.8,0c-0.3,0-0.6,0-0.9-0.1c-0.3-0.1-0.6-0.3-0.9-0.7c0-0.5,0-1,0.1-1.5c0-0.4,0.2-0.8,0.5-1.2c0.3-0.4,0.6-0.8,1-0.9
		c0.4-0.2,0.8-0.3,1.1-0.3c0.4,0,0.8,0,1.2,0c0.4,0,0.8,0,1.1,0l7.9,0.5L47.6,18.7z M28.3,26.4c1.5,0,3-0.1,4.4-0.1
		c1.8,0,3.5,0,5.3,0.1c1.8,0,3.5,0.1,5.1,0.2c0.2-0.1,0.4-0.1,0.7-0.2c0.3,0,0.6-0.1,0.9-0.1c0.2,0,0.6,0,0.9,0.1
		c0.4,0,0.6,0.1,0.8,0.1c0.4,0.1,0.7,0.3,0.8,0.7c0.1,0.4,0.1,0.8,0.1,1.1v1c0,0.9,0,1.9,0,3c0,1.1,0,2.3,0,3.5c0,1.1,0,2.3,0.1,3.5
		c0.1,1.2,0.2,2.3,0.3,3.4c-0.1,0.4-0.2,0.9-0.3,1.4c-0.1,0.5-0.5,0.9-1,1c-0.2,0.1-0.4,0.2-0.6,0.2c-0.2,0-0.4,0.1-0.6,0.1
		c-0.4,0-0.6,0-0.9,0c-0.2,0-0.4,0-0.6,0c-1.8,0-3.7,0-5.7,0c-1.9,0-3.8,0-5.5,0c-1.8,0-3.5,0-5.1,0c-1.7,0-3.2,0-4.7,0
		c-0.2,0-0.4,0-0.7,0c-0.3,0-0.5,0-0.7,0c-0.3,0-0.5,0-0.8,0c-0.3,0-0.5,0-0.8-0.1c-0.2-0.3-0.3-0.6-0.4-0.9c-0.1-0.3-0.1-0.7-0.1-1
		v-1.8c0-1,0-2.1,0-3.2c0-1.1,0-2.2,0-3.1c0-1.1,0-2.2,0-3.2c0-1,0-1.9,0-2.8c0-0.6,0-1.1,0.1-1.6c0.1-0.5,0.4-0.8,1-1.1
		c0.2,0,0.4,0,0.6-0.1c0.2,0,0.5-0.1,0.6-0.1c0.4,0,0.8,0,1.2,0.1c0.4,0.1,0.7,0.2,1.1,0.3C25.4,26.5,26.8,26.4,28.3,26.4z
		 M42.7,30.1c-0.4,0-0.6,0-0.8-0.2h-5.3c-2.1,0-4.3,0-6.4,0.1c-2.2,0-4.3,0.1-6.3,0.3c-0.1,0.2-0.2,0.4-0.3,0.6
		c-0.1,0.3-0.1,0.5-0.1,0.8c0,0.1,0,0.2,0,0.4c0,0.2,0,0.3,0,0.5v0.5l0.8-0.1l19.1,0.1c0-0.1,0-0.2,0-0.3c0-0.1,0-0.2,0-0.3
		c0-0.2,0-0.4,0-0.7c0-0.3,0-0.6,0-1c0-0.2,0-0.3,0-0.4c0-0.1,0-0.2,0-0.3C43.2,30.1,43,30.1,42.7,30.1z M43.3,36.3h-4.9
		c-2.6,0-5.1,0-7.6,0.1c-2.5,0.1-4.9,0.3-7.2,0.8L23.4,37V39c0,0.3,0,0.5,0,0.8c0,0.3,0,0.6,0.1,0.8c0.2,0,0.3,0,0.3,0
		c0,0,0.1,0,0.2,0c1.2,0,2.3,0,3.3,0c1.1,0,2.2,0,3.3,0c2,0,3.9,0,5.9,0.1c2,0.1,4,0.2,5.9,0.4l0.7-0.4V36.3z"/>
	<path d="M85.7,22.8c0.4-0.4,0.8-0.9,1.2-1.3c0.4-0.4,0.8-0.6,1.4-0.5c0.7,0.2,1,0.5,0.8,1.1c-0.1,0.6-0.3,1.1-0.6,1.5
		c-0.3,0.4-0.5,0.9-0.8,1.3c-0.3,0.4-0.5,0.9-0.7,1.3h2.5c1.1,0,2,0,2.6-0.1c0.6,0,1.5-0.1,2.6-0.2c0.3,0.1,0.4,0.3,0.4,0.5
		c0,0.3,0,0.5,0.1,0.6c-0.3,1-1,1.9-1.9,2.6c-0.9,0.7-1.9,1.1-2.9,1.3c-1.1-0.3-2-0.7-2.6-1c-0.6-0.3-1.7-0.5-3-0.6l-3.2,3
		c1.2,0,2.4,0,3.5,0.1c1.1,0,2.2,0.1,3.4,0.1c0.3,0,0.7,0,1,0c0.3,0,0.7,0,1,0h0.4c0.2,0,0.3,0.1,0.5,0.5c0.1,0.3,0.2,0.5,0.3,0.7
		c0,0.1,0,0.1,0,0.2c0,0,0,0.2,0,0.3v0.3c0,0.1,0,0.2-0.1,0.3c0,0.1-0.1,0.2-0.2,0.3c-1,0.6-2,1.4-3,2.4c-1.1,1-2.1,2-3,3.2
		c0.4,0.3,0.8,0.8,1.1,1.2c0.3,0.5,0.5,1.1,0.6,1.7c0.4,0,0.9,0,1.3,0c0.4,0,0.8,0,1.2,0c1.2,0,2.3-0.1,3.3-0.2c1-0.1,2-0.3,3.2-0.5
		c0.2,0.2,0.3,0.4,0.5,0.8c0.1,0.4,0.2,0.6,0.2,0.8c0,0.1,0,0.2,0,0.4c0,0.2,0,0.4-0.1,0.5c-0.3,0.9-0.9,1.6-1.6,2.1
		c-0.7,0.5-1.5,0.7-2.3,0.7c-0.9-0.3-1.7-0.6-2.5-0.8c-0.8-0.2-1.7-0.4-2.7-0.5c-0.1,1.8-0.2,3.6-0.3,5.3c-0.1,1.7-1,3.1-2.6,4
		c-0.9,0.5-1.8,0.8-2.7,1c-0.9,0.2-1.9,0.3-3,0.3c-0.3,0-0.7,0-1,0c-0.3,0-0.6,0-1,0c-1.1-0.1-1.7-0.7-1.7-1.7c0-1-0.3-1.7-1-2.2
		v-0.4c0-0.1,0-0.1,0.1-0.2c0.1-0.1,0.2-0.1,0.3-0.1c0.7,0,1.4,0,2.1,0c0.7,0,1.4,0,2.1,0l0.1-0.1c0.9-0.1,1.8-0.2,2.6-0.5
		c0.8-0.3,1.4-0.8,1.8-1.6c0.4-0.5,0.7-1,0.7-1.6c0-0.6,0.1-1.3,0.2-2.1c-0.5,0-1,0-1.5-0.1c-0.5,0-1-0.1-1.4-0.1
		c-1.5,0-2.9,0.1-4.4,0.4c-1.5,0.3-2.9,0.6-4.4,1c-0.3,0-0.6-0.1-0.8-0.2c-0.2-0.1-0.4-0.4-0.6-0.9c0-0.2,0-0.3-0.1-0.3
		c-0.1,0-0.1-0.1-0.1-0.2c0-0.6,0.1-1.2,0.4-1.7c0.3-0.5,0.6-0.9,1-1.1c0.3-0.2,0.7-0.3,1-0.3c0.3,0,0.6,0,1,0c0.7,0,1.4,0,2.1,0
		c0.7,0,1.4,0,2.1,0c0.2,0,0.5,0,1,0c0.5,0,0.8,0,0.8,0c0.7,0,1.3,0,1.9,0c0.6,0,1.2-0.1,1.8-0.2c-0.2-1-0.8-1.7-1.8-2.1
		c-1-0.3-1.9-0.8-2.6-1.5v-0.5c0-0.1,0-0.2,0.1-0.4c0.1-0.2,0.2-0.3,0.3-0.3H80c0.7,0,1.3,0.1,1.9,0.4c0.6,0.3,1.2,0.6,1.7,0.9
		l2.2-2.9c-0.2-0.3-0.3-0.4-0.4-0.4h-1.5c-1.1,0-2.2,0-3.2-0.1c-1-0.1-2,0.1-3,0.5l-0.1-0.3c-0.9,0.5-1.7,1.2-2.5,1.9
		c-0.8,0.8-1.6,1.2-2.6,1.2c-0.3,0-0.6-0.1-0.8-0.2c-0.2-0.1-0.4-0.3-0.6-0.5c-0.6-0.2-1.2-0.6-1.9-1c-0.6-0.5-1-1.3-1.1-2.3
		L68,35.7c0.1-0.3,0.2-0.5,0.3-0.5h0.1h0.1c2.6,0,4.9-0.6,6.8-1.7c2-1.2,3.9-2.6,5.8-4.2h-1.4c-1.5,0-3,0.2-4.5,0.5
		c-1.5,0.3-2.9,0.7-4.2,1.1c-0.3,0-0.7-0.1-1-0.3c-0.3-0.2-0.5-0.5-0.7-0.9c0-0.1,0-0.2-0.1-0.3c-0.1-0.1-0.1-0.2-0.1-0.3
		c0-0.5,0.1-1,0.4-1.4c0.3-0.4,0.5-0.8,0.8-1.1c0.3-0.1,0.5-0.2,0.8-0.2c0.3-0.1,0.5-0.1,0.6-0.1c0.3,0,0.5,0,0.8,0.1
		c0.3,0,0.5,0.1,0.6,0.2l10.1-0.3L85.7,22.8z M82.4,10.2c1.2,1,2.5,2,3.7,2.9c1.3-0.9,2.5-2,3.7-3.2C90.9,8.8,92,7.5,93.1,6h0.5
		c0.2,0,0.3,0,0.5,0.1c0.2,0.1,0.3,0.3,0.4,0.5v1.4L89,15.2c1.2,0.9,2.4,1.7,3.7,2.5c1.2,0.8,2.3,1.8,3.3,2.9v0.6c0,0.1,0,0.3,0,0.4
		c0,0.1,0,0.2-0.1,0.3c-0.1,0.1-0.2,0.1-0.4,0.2c-0.2,0.1-0.3,0.1-0.4,0.1c-0.3,0-0.6-0.1-0.9-0.2c-0.3-0.1-0.6-0.3-0.9-0.3
		l-6.8-3.9c-1.6,1.4-3.3,2.7-5,3.8c-1.7,1.1-3.5,2-5.3,2.8c-0.1,0-0.2,0-0.3,0c-0.1,0-0.3,0-0.5,0c-1,0-2-0.3-2.9-0.8
		c-0.9-0.5-1.7-1.2-2.3-1.9c-0.1-0.1-0.1-0.3-0.1-0.4c0-0.1,0-0.3,0-0.5v-0.8l0.1-0.2c2.3,0,4.5-0.3,6.6-1c2.1-0.7,4-1.7,5.8-3
		c-1.3-1-2.6-1.9-4.1-2.7c-1.4-0.8-2.8-1.6-4.2-2.4c-0.3-0.3-0.5-0.6-0.7-1c-0.2-0.4-0.3-0.8-0.3-1.2c0-0.2,0-0.4,0.1-0.7
		c0.1-0.3,0.2-0.5,0.3-0.6c0.2-0.3,0.4-0.6,0.8-0.8C74.9,6.1,75.3,6,75.7,6c0.5,0,1.1,0.1,1.6,0.3c0.6,0.2,1,0.5,1.2,1
		C79.8,8.3,81.1,9.3,82.4,10.2z M108.4,6.2v0.4c0,0.1,0,0.3,0,0.5c0,0.3,0,0.5,0,0.6c0,0.1,0,0.2,0,0.4c0,0.2,0,0.3-0.1,0.5
		c-0.1,1.2-0.3,2.4-0.5,3.5c-0.3,1.1-0.5,2.3-0.6,3.5l3.1,0.3l15.8-0.3c0.2,0.3,0.3,0.5,0.4,0.7c0.1,0.2,0.1,0.4,0.1,0.7
		c0,0.3,0,0.5-0.1,0.7c-0.1,0.2-0.2,0.4-0.4,0.6c-0.3,0.6-0.6,1.1-1,1.4c-0.4,0.3-0.9,0.5-1.3,0.6c-1.4-0.2-2.8-0.3-4.3-0.5
		c-1.5-0.1-3-0.2-4.5-0.2c-1.5,0-3,0.1-4.5,0.2c-1.4,0.1-2.9,0.3-4.3,0.5c-0.3,0.5-0.5,1-0.6,1.5c0,0.5-0.2,1-0.5,1.5
		c-0.4,1-0.8,2-1.2,3c-0.3,1-0.9,1.8-1.7,2.6h-1c-0.3,0-0.5,0-0.7-0.1c-0.2-0.1-0.4-0.2-0.6-0.3c-0.9-0.2-1.7-0.6-2.5-0.9
		c-0.8-0.4-1.4-1-1.9-1.8c-0.1-0.2-0.1-0.4-0.1-0.5c0-0.3,0-0.5,0.1-0.7c0.1-0.2,0.3-0.3,0.5-0.3c2.1-0.3,3.7-1.5,5-3.5
		c1.3-2,2.3-3.9,3-5.8c0.4-1.5,0.8-2.9,1.1-4.4c0.3-1.5,0.6-3,1-4.5c0-0.3,0.1-0.6,0.4-0.6c0.3-0.1,0.5-0.1,0.6-0.1
		c0.3,0,0.6,0.1,0.9,0.2C108.3,5.6,108.4,5.8,108.4,6.2z M118.3,24.3c0,0.1,0.1,0.2,0.1,0.3c0,0.3,0,0.7-0.1,1
		c-0.1,0.3-0.1,0.7-0.1,1.1c-0.4,2.2-0.9,4.5-1.4,6.8c-0.5,2.3-1.2,4.5-2.3,6.7c2.6,2,5.2,3.8,7.9,5.5c2.7,1.7,5.6,2.7,8.8,3
		c0.1,0.2,0.1,0.3,0.1,0.5c0,0.2,0,0.3,0,0.5c0,0.1,0,0.2,0,0.4c0,0.2,0,0.3-0.1,0.5c-1,1-2.2,1.9-3.4,2.6c-1.2,0.7-2.6,1.1-4.1,1.1
		c-0.3,0-0.7,0-1.1-0.1c-0.4-0.1-0.8-0.2-1.2-0.4c-1.6-1.3-3.2-2.8-4.6-4.5c-1.5-1.7-2.9-3.4-4.4-5.1c-1.4,1.8-2.9,3.6-4.5,5.4
		c-1.6,1.8-3.5,2.9-5.6,3.4c-1.2-0.1-2.4-0.7-3.5-1.9c-1.1-1.2-1.9-2.3-2.2-3.4v-0.4c0-0.1,0-0.2,0-0.4c0-0.2,0-0.3,0-0.4
		c0-0.3,0-0.5,0.1-0.7c0-0.2,0.1-0.4,0.2-0.5c0.4,0.1,0.9,0.2,1.4,0.3c0.5,0.1,0.9,0.2,1.4,0.2c1.7,0,3.4-0.5,5.1-1.6
		c1.7-1.1,3.1-2.3,4.3-3.7l-7.5-7.6v-0.4c0-0.2,0.1-0.4,0.3-0.8c0.2-0.3,0.4-0.5,0.8-0.5l1.8,0.3l6.8,5.8c1.3-2,2.1-4.2,2.6-6.5
		c0.4-2.4,0.8-4.8,1.2-7.3c0.2-0.2,0.4-0.3,0.8-0.5c0.3-0.2,0.7-0.3,1-0.3c0.3,0,0.6,0.1,0.9,0.3c0.3,0.2,0.6,0.5,0.6,0.9
		C118.2,24.1,118.2,24.2,118.3,24.3z"/>
	<path d="M155.5,6.9c0,0.3,0,0.5,0,0.7c0,0.9,0,1.9,0,2.8c0,0.9,0,1.8,0,2.8c0.1,0,0.4,0,0.8,0c0.5,0,1,0,1.5,0c1.2,0,2.5,0,3.8,0
		c1.3,0,2.6,0,3.8,0c0.3,0.2,0.4,0.4,0.5,0.7c0,0.3,0.1,0.5,0.2,0.7c-0.1,0.5-0.3,0.9-0.6,1.3c-0.3,0.3-0.7,0.6-1,0.9
		c-0.2,0-0.4,0-0.6,0c-0.2,0-0.4,0-0.6,0h-1.2c-0.3,1.1-0.5,2.3-0.8,3.4c-0.3,1.1-0.5,2.3-0.7,3.4c0.9,0.3,1.9,0.4,3.1,0.3
		c1.2,0,1.9,0.6,2.2,1.9c-0.1,0.2-0.2,0.4-0.3,0.7c-0.1,0.3-0.3,0.5-0.6,0.7c-1.5,0.1-3.1,0.1-4.8,0.1c-1.6,0-3.2,0-4.6,0.1l0.1,5.3
		c0.3,0,0.5,0,0.8,0c0.3,0,0.5,0,0.6,0c1.1,0,2.2,0,3.4,0c1.1,0,2.2,0,3.4,0h2.3c0.2,0.2,0.3,0.4,0.3,0.7c0,0.3,0.1,0.5,0.1,0.7
		c0,0.2,0,0.4-0.1,0.7c0,0.3-0.1,0.5-0.2,0.7c-0.4,0.6-0.9,1.1-1.5,1.4c-0.6,0.3-1.1,0.5-1.7,0.5c-0.7,0-1.4,0-2.3,0
		c-0.8,0-1.6,0-2.3,0h-0.9c-0.2,0-0.3,0-0.5,0c-0.1,0-0.3,0-0.5,0c-0.3,0-0.4,0-0.5,0c-0.2,0-0.3,0.1-0.4,0.2
		c-0.1,0.1-0.1,0.2-0.1,0.4c1.1,0.7,2.3,1.4,3.6,2.1c1.2,0.7,2.4,1.4,3.5,2.3c0.3,0.1,0.4,0.2,0.5,0.3c0,0.2,0.1,0.3,0.1,0.3
		c0,0.2,0,0.3,0,0.5c0,0.2,0,0.4-0.1,0.5c0,0.1-0.1,0.2-0.3,0.2c-0.2,0.1-0.4,0.2-0.6,0.3c-1-0.5-2.1-0.9-3.2-1.3
		c-1.1-0.4-2.2-0.9-3.4-1.3c0,0.4,0,0.8,0,1.1c0,0.4,0,0.8,0,1.1c0,1.1,0,2.3,0,3.4c0,1.1,0,2.3,0,3.4c0,0.9-0.1,1.7-0.2,2.5
		c-0.2,0.8-0.3,1.6-0.6,2.4c-0.2,0.3-0.3,0.6-0.6,0.6c-0.2,0.1-0.5,0.2-0.7,0.3c-0.4-0.1-0.7-0.2-1-0.5c-0.3-0.2-0.5-0.6-0.6-1.1
		c-0.1-0.8-0.2-1.5-0.3-2.3c-0.1-0.8-0.2-1.5-0.2-2.2c0-1.6,0-3.1,0-4.6c0-1.5,0-3,0-4.5c0-0.5,0-0.9,0-1.3c0-0.4,0-0.7,0-1
		c-1.1,2-2.5,4-4.2,6.1c-1.7,2.1-3.7,3.7-6.1,4.7h-0.8c-1.1,0-2.2-0.3-3.2-1c-1-0.6-1.8-1.4-2.4-2.3v-0.3c0-0.1,0-0.1,0-0.2
		c0-0.1,0-0.2,0-0.3c0-0.1,0-0.2,0.1-0.3c0.1-0.1,0.2-0.2,0.3-0.2c3,0,5.8-0.8,8.3-2.3c2.5-1.5,4.7-3.5,6.7-6c-0.8,0-1.6,0-2.4,0
		s-1.6,0-2.4,0c-1.1,0-2.3,0-3.5,0c-1.2,0-2.4,0-3.5,0c-0.3,0-0.7,0-1.1-0.1c-0.4-0.1-0.7-0.3-0.8-0.8c0-0.1,0-0.2-0.1-0.3
		c0-0.1-0.1-0.2-0.1-0.3c0-0.4,0.1-0.9,0.3-1.3c0.2-0.4,0.4-0.8,0.8-1.1c0.2-0.4,0.4-0.6,0.8-0.6c0.3,0,0.7-0.1,1.2-0.1
		c0.4,0,0.8,0,1.2,0c0.3,0,0.7,0,1,0c0.9,0,1.7,0,2.5,0c0.8,0,1.6,0,2.4,0c0.9,0,1.7,0,2.5-0.1c0.8-0.1,1.7-0.1,2.5-0.2
		c0-0.1,0-0.3,0-0.5c0-0.2,0-0.3,0-0.4c0-0.4,0-0.8,0-1.3s0-0.9,0-1.3c0-0.1,0-0.3,0-0.5c0-0.2,0-0.3,0-0.4h-1.7
		c-1.5,0-2.9,0.1-4.4,0.3c-1.5,0.2-2.9,0.4-4.3,0.6c-0.3-0.2-0.7-0.3-1.2-0.4c-0.5-0.1-0.7-0.4-0.8-0.8c0-0.2,0-0.4-0.1-0.5
		c0-0.2-0.1-0.3-0.1-0.4c0-0.7,0.2-1.3,0.5-1.9c0.3-0.5,0.7-0.9,1.1-1.1c0.3-0.2,0.7-0.3,1.1-0.4c0.4,0,0.7-0.1,1.1-0.1h1.3
		c0.2,0,0.4,0,0.8,0c0.3,0,0.6,0,0.8-0.1c-0.2-1.1-0.4-2.1-0.6-3.2c-0.2-1.1-0.5-2.2-0.8-3.4c-0.4,0-0.9,0-1.5,0c-0.6,0-1.1,0-1.7,0
		c-0.3,0-0.6,0-0.9-0.1c-0.3-0.1-0.6-0.2-0.9-0.5c0-0.1,0-0.2,0-0.3c0-0.1,0-0.1,0-0.2c0-0.4,0.1-0.7,0.2-1.1c0.1-0.4,0.3-0.7,0.6-1
		c0.3-0.1,0.5-0.3,0.8-0.3c0.3-0.1,0.6-0.1,0.9-0.1c0.4,0,0.9,0,1.3,0c0.4,0,0.8,0,1,0c0.7,0,1.4,0,2,0c0.6,0,1.3,0,1.9,0
		c0.7,0,1.3,0,1.9,0c0.6,0,1.2,0,1.8,0c0-0.9-0.1-1.8-0.4-2.8c-0.3-1-0.5-1.9-0.5-2.8c0-0.6,0.1-1.2,0.4-1.7
		c0.3-0.5,0.7-0.9,1.3-1.3h0.6c0.5,0,1,0.1,1.6,0.2c0.5,0.1,0.9,0.5,1.2,1.2C155.5,6.3,155.5,6.6,155.5,6.9z M147.8,16.8l0.5,6.5
		l8.5,0.1c0.2-1,0.3-2.1,0.3-3.2c0-1.1,0.1-2.2,0.2-3.4H147.8z M177.1,12.2l16.3-0.4c0.2,0.2,0.3,0.4,0.4,0.7
		c0.1,0.3,0.1,0.6,0.1,0.7c0,0.3,0,0.5-0.1,0.8c-0.1,0.3-0.2,0.5-0.4,0.8c-0.3,0.6-0.6,1.1-1.2,1.5c-0.5,0.4-1.1,0.5-1.7,0.5
		c-0.2,0-0.4,0-0.6,0c-0.2,0-0.5,0-0.8,0c-1.4,0-2.8,0-4.4,0c-1.5,0-3.1,0-4.6,0c-1.4,0-2.8,0-4.2,0.1c-1.4,0.1-2.8,0.3-4.2,0.6
		l-0.3,0.3v7.4h17c1.5,0,2.8-0.3,4.1-0.8c1.3-0.5,2.6-0.9,4-1c0.2,0.3,0.3,0.6,0.3,0.9c0,0.3,0.1,0.6,0.1,0.9c0,0.3,0,0.5-0.1,0.8
		c0,0.3-0.1,0.5-0.2,0.7c-0.3,0.8-0.7,1.5-1.2,2.1c-0.4,0.5-1,0.9-1.8,1.1c-0.2,0-0.3,0-0.4,0c-0.1,0-0.2,0-0.3,0
		c-0.6,0-1.2,0-1.8,0c-0.6,0-1.1,0-1.5,0c-0.1,0-0.2,0-0.4-0.1c-0.1,0.1-0.2,0.1-0.3,0.1c-0.6,0-1.2,0-1.7,0c-0.6,0-1.1,0-1.7,0
		h-0.6v0.1c0,1.1,0,2.3-0.1,3.6c-0.1,1.3-0.1,2.5-0.1,3.7c0,2.6,0.1,5.2,0.3,7.9c0.2,2.7,0.5,5.3,0.8,7.9c-0.1,0.7-0.2,1.5-0.3,2.4
		c-0.1,0.9-0.5,1.4-1.3,1.6h-0.9c-0.1,0-0.2,0-0.3,0c-0.1,0-0.2,0-0.4,0c-0.6-0.4-0.9-1.1-1-1.9c0-0.8-0.1-1.6-0.2-2.3l-0.4-7.6
		l-0.4-15.5h-2.3c-1.1,0-2.2,0-3.3,0c-1.1,0-2.2,0.1-3.3,0.3c-0.1-0.2-0.2-0.3-0.3-0.3c-0.2,3.8-0.4,7.8-0.6,12
		c-0.2,4.2-1.9,7.8-5.2,10.8c-0.1,0.1-0.3,0.2-0.5,0.3c-0.3,0.1-0.5,0.1-0.8,0.1c-0.3,0-0.6-0.1-1-0.3c-0.4-0.2-0.7-0.3-1-0.4
		c-0.4-0.4-1-0.9-1.7-1.4c-0.7-0.5-1-1.1-1-2v-0.5c0.7-0.4,1.4-0.9,2.1-1.3c0.7-0.4,1.3-1,1.8-1.7c1.6-2.2,2.6-4.6,3-7.2
		c0.4-2.6,0.6-5.3,0.6-8v-4.6c0-0.4,0-1,0-1.5c0-0.6,0-1,0-1.4l-0.5-9.6c0.1-0.2,0.2-0.4,0.4-0.7c0.2-0.3,0.4-0.4,0.7-0.4h0.2
		c0.1,0,0.2,0,0.4,0c0.2,0,0.3,0,0.4,0c0.5,0,1,0,1.6,0c0.6,0,1.1,0,1.5,0c0.1,0,0.2,0,0.4-0.1c0.2-0.1,0.3-0.2,0.4-0.3L177.1,12.2z
		"/>
	<path d="M228.4,7.5c0.5-0.1,0.9-0.1,1.2-0.1c0.3,0,0.5,0,0.8,0.1c0.3,0,0.4,0.2,0.5,0.3c0.3,0.2,0.5,0.4,0.6,0.7
		c0,0.3,0.1,0.6,0.2,1c-0.4,2.8-0.8,5.7-1,8.6c-0.2,2.9-0.3,5.7-0.3,8.6c-0.1,0.3-0.3,0.5-0.5,0.7c-0.3,0.2-0.5,0.3-0.6,0.4h-0.4
		c-0.3,0-0.7-0.1-1-0.3c-0.3-0.2-0.7-0.4-1-0.8h-3.4c-1.5,0-2.9,0.1-4.4,0.3c-1.5,0.2-2.9,0.4-4.2,0.8c-0.3,4.3-0.6,8.8-1,13.5
		c-0.4,4.7-1.9,9-4.4,13c-0.3,0.6-0.8,1.1-1.3,1.5c-0.5,0.4-1.1,0.7-1.8,0.9c-0.9,0-1.6-0.2-2.3-0.6c-0.7-0.4-1.3-1-1.8-1.8
		c0-0.2,0-0.3-0.1-0.5c0-0.2-0.1-0.3-0.1-0.5c0-0.2,0-0.4,0.1-0.6c0-0.2,0.1-0.4,0.1-0.5c3.8-2.5,6.1-5.9,7-10.1
		c0.9-4.3,1.4-8.4,1.5-12.3c0.1-0.9,0.1-1.9,0.1-2.7c0-0.9,0-1.7,0-2.6c0-2.6,0-5.3,0-8c0-2.7,0-5.4,0-8c0.1-0.4,0.3-0.6,0.5-0.7
		c0.3-0.1,0.5-0.1,0.6-0.1c0.3,0,0.6,0,0.9,0c0.3,0,0.6,0,0.8,0l13.6,0.4C227.5,7.6,227.9,7.6,228.4,7.5z M224.5,11
		c-0.6,0-1.1,0-1.7,0c-1.3,0-2.6,0-3.9,0.1c-1.3,0.1-2.7,0.2-4,0.3v4.1l11.4,0.1v-2.3c0-0.4,0-0.8,0-1.2c0-0.4-0.1-0.8-0.2-1.1
		C225.5,11,225,11,224.5,11z M226.2,19h-2.9c-1.4,0-2.8,0.1-4.2,0.2c-1.4,0.1-2.8,0.3-4.2,0.5v3.7c0.7-0.1,1.3-0.2,2-0.3
		c0.7-0.1,1.3-0.1,1.9-0.1c1.3,0,2.6,0.1,3.9,0.2c1.3,0.1,2.5,0.3,3.5,0.5V19z M249.5,30.3c0.2,0.1,0.3,0.2,0.3,0.5
		c0,0.2,0.2,0.4,0.3,0.6c-0.3,0.8-0.7,1.3-1.4,1.5c-0.6,0.3-1.3,0.4-2,0.4c-0.3,0-0.7,0-1-0.1c-0.3,0-0.7-0.1-1-0.1
		c-0.3,0-0.6,0-0.9,0.1c-0.3,0-0.5,0.1-0.7,0.1c0.1,0.2,0.2,0.4,0.2,0.6c0,0.3,0.1,0.5,0.1,0.6c0,0.4,0,0.9,0,1.3c0,0.4,0,0.9,0,1.5
		v0.6v9.3c0.5,0.1,0.9,0.1,1.2,0.1c0.6,0,1.1,0,1.6-0.1c0.5,0,1-0.1,1.6-0.1h0.9c0.1,0.2,0.2,0.3,0.2,0.5c0,0.2,0.1,0.3,0.1,0.5
		c0,0.1,0,0.2,0,0.4c0,0.2,0,0.3-0.1,0.5l-0.6,0.6l-4.8,0.6c0,0.1,0,0.2,0,0.3c0,0.1,0,0.2,0,0.3c0,0.3,0,0.7,0,1.2
		c0,0.4,0,0.7,0,0.9c0,0.9-0.1,1.6-0.3,2.3c-0.2,0.7-0.6,1.2-1.3,1.5c-0.1,0-0.2,0-0.5,0.1c-0.2,0.1-0.4,0.1-0.6,0.1
		c-0.1,0-0.2,0-0.3-0.1c-0.1-0.1-0.2-0.1-0.3-0.1l-0.7-0.9c-0.1-0.9-0.2-1.9-0.2-2.7c-0.1-0.9-0.1-1.7-0.2-2.6
		c-3.2,0.5-6.5,1-9.9,1.4c-3.4,0.4-6.6,0.9-9.7,1.6c-0.3-0.1-0.7-0.2-1-0.2c-0.3,0-0.5-0.2-0.7-0.5c-0.1-0.2-0.2-0.4-0.2-0.6
		c0-0.2-0.1-0.5-0.1-0.7c0-0.4,0.1-0.8,0.3-1.2c0.2-0.4,0.3-0.8,0.4-1.1c0.6-0.2,1.3-0.2,2-0.2c0.7,0,1.4,0,2-0.2
		c0.3-1.3,0.6-2.7,0.8-4.3c0.2-1.5,0.3-3,0.3-4.4c0-1.2-0.1-2.5-0.2-3.7c-0.1-1.3-0.4-2.4-0.7-3.4h-0.3c-0.4,0-0.9,0.1-1.4,0.2
		c-0.5,0.1-0.9,0.2-1.4,0.2c-0.3,0-0.5-0.1-0.8-0.3c-0.3-0.2-0.5-0.4-0.6-0.6c0-0.1,0-0.2,0-0.4c0-0.4,0.1-0.8,0.2-1.1
		c0.1-0.3,0.3-0.6,0.5-0.8c0.3-0.2,0.6-0.3,0.9-0.3c0.3,0,0.5-0.1,0.8-0.1c0.4,0,0.9,0,1.3,0c0.4,0,0.8,0,1.2,0l22.5,0.1L249.5,30.3
		z M239.3,33.3h-7c-0.9,0-1.7,0-2.6,0c-0.9,0-1.7,0.1-2.6,0.3l0.1,2.6h12V33.3z M239.3,44.1c-2,0-3.9,0-5.9,0.1
		c-2,0-3.9,0.2-5.8,0.6c-0.1,0.5-0.1,1.1-0.1,1.6c0,0.6-0.1,1.1-0.3,1.5l12.1-0.9V44.1z M239.3,39h-3.4c-1.4,0-2.8,0-4.3,0.1
		c-1.5,0-2.9,0.2-4.3,0.5h0.1c-0.1,0.3-0.1,0.5-0.1,0.7c0,0.2,0,0.5,0,0.7v1.2h11.9V39z M254.3,7.7c0.2,0,0.4,0,0.6,0
		c0.3,0,0.6,0,0.9,0c0.4,0,0.9,0,1.3,0.1c0.4,0.1,0.7,0.3,0.9,0.8v0.5c0,0.6,0,1.2,0,1.8c0,0.6,0,1.2,0,1.7l-0.6,12.1l0.1,15.2
		c0.2,1.8,0.3,3.7,0.3,5.8c0,2.1,0.1,4,0.2,5.9c0,0.6-0.1,1.2-0.3,1.7c-0.2,0.6-0.5,1-0.9,1.4c-0.2,0.1-0.3,0.2-0.5,0.2
		c-0.2,0-0.4,0.1-0.6,0.1c-0.2,0-0.3,0-0.5-0.1c-0.2,0-0.4-0.1-0.5-0.2c-0.5-0.4-0.7-0.9-0.7-1.5c0-0.6,0-1.2-0.1-1.7l0.1-25.4h-0.3
		h-0.1l-0.1,0.3c-0.9-0.2-1.9-0.3-2.9-0.3c-1,0-2,0-3,0c-1.6,0-3.1,0-4.6,0c-1.4,0-2.8,0.1-4,0.3c-0.4-0.2-0.9-0.3-1.6-0.3
		c0-0.9,0-2.2,0-3.7c0-1.5,0-2.9,0-4.3c0-0.7,0-1.5,0-2.3c0-0.9,0-1.6,0-2.3s0-1.4,0-2c0-0.6,0-1.3,0-1.9c0-0.3,0-0.6,0-0.9
		c0-0.3,0-0.6,0-0.9c0.3-0.2,0.6-0.3,0.9-0.4c0.3-0.1,0.7-0.1,1-0.1c0.4,0,0.8,0,1.1,0.1c0.3,0.1,0.5,0.2,0.7,0.4L254.3,7.7z
		 M253.9,22.4c0-0.1,0-0.1,0-0.2c0-0.3,0-0.7,0-1.1s0-0.7,0-1v-0.5c-2.1,0.1-4.2,0.1-6.3,0.1c-2.1,0-4.2,0.1-6.2,0.4v0.2
		c0,0.1,0,0.2,0,0.3v0.2c0,0.2,0,0.4,0,0.6c0,0.2,0,0.4,0,0.5c0,0.1,0.1,0.3,0.2,0.4c0.1,0.2,0.4,0.2,0.7,0.2c0.8,0,1.7,0,2.6,0
		c0.9,0,1.9,0,2.8,0c1,0,2,0,3.2,0c1.1,0,2.1,0,3,0C253.9,22.5,253.9,22.5,253.9,22.4z M253.6,11.3l-11.4-0.1l-0.1,3.9h10.7l1,0.5
		v-4L253.6,11.3z"/>
</g>
</svg>
