<?xml version="1.0" encoding="utf-8"?>
<!-- Generator: Adobe Illustrator 24.0.2, SVG Export Plug-In . SVG Version: 6.00 Build 0)  -->
<svg version="1.1" xmlns="http://www.w3.org/2000/svg" xmlns:xlink="http://www.w3.org/1999/xlink" x="0px" y="0px"
	 viewBox="0 0 72.23 62.9" style="enable-background:new 0 0 72.23 62.9;" xml:space="preserve">
<style type="text/css">
	.st0{fill:#FAFAFA;}
	.st1{clip-path:url(#SVGID_2_);}
</style>
<g id="Layer_1">
	<rect y="0" class="st0" width="72.23" height="62.9"/>
	<g>
		<defs>
			<rect id="SVGID_1_" y="0" width="72.23" height="62.9"/>
		</defs>
		<clipPath id="SVGID_2_">
			<use xlink:href="#SVGID_1_"  style="overflow:visible;"/>
		</clipPath>
		<path class="st1" d="M68.96,22.71h-8C59.83,10,49.12,0,36.12,0S12.41,10,11.27,22.71h-8c-1.8,0-3.27,1.47-3.27,3.27v15.75
			C0,43.53,1.47,45,3.27,45h8.07c0.47,2.97,1.36,5.53,2.66,7.61c1.33,2.14,3.12,3.84,5.32,5.07c3.82,2.13,8.46,2.58,12.34,2.65
			c0.32,1.47,1.63,2.57,3.18,2.57h5.59c1.8,0,3.26-1.46,3.26-3.26v-1.17c0-1.8-1.46-3.26-3.26-3.26h-5.59
			c-1.55,0-2.85,1.09-3.18,2.55c-3.56-0.07-7.77-0.47-11.09-2.32c-3.89-2.17-6.12-6.03-6.82-11.8v-6.99v-11.7
			c0-12.33,10.03-22.37,22.37-22.37s22.37,10.03,22.37,22.37v11.7v7.07c0,0.71,0.58,1.29,1.29,1.29h9.19c1.8,0,3.27-1.47,3.27-3.27
			V25.98C72.23,24.18,70.77,22.71,68.96,22.71 M34.16,58.46c0-0.37,0.31-0.68,0.68-0.68h5.59c0.37,0,0.68,0.31,0.68,0.68v1.17
			c0,0.37-0.31,0.68-0.68,0.68h-5.59c-0.37,0-0.68-0.31-0.68-0.68V58.46z M2.58,41.73V25.98c0-0.38,0.32-0.69,0.69-0.69h7.9v11.36
			v5.78h-7.9C2.9,42.42,2.58,42.11,2.58,41.73 M69.65,41.73c0,0.38-0.32,0.69-0.69,0.69h-7.9v-5.78V25.29h7.9
			c0.38,0,0.69,0.32,0.69,0.69V41.73z"/>
	</g>
</g>
<g id="Layer_2">
</g>
</svg>
